<mxfile host="app.diagrams.net" agent="Mozilla/5.0 (X11; Linux x86_64) AppleWebKit/537.36 (KHTML, like Gecko) Chrome/140.0.0.0 Safari/537.36" version="28.2.3">
  <diagram id="R2lEEEUBdFMjLlhIrx00" name="Page-1">
    <mxGraphModel dx="2353" dy="971" grid="1" gridSize="10" guides="1" tooltips="1" connect="1" arrows="1" fold="1" page="1" pageScale="1" pageWidth="850" pageHeight="1100" math="0" shadow="0" extFonts="Permanent Marker^https://fonts.googleapis.com/css?family=Permanent+Marker">
      <root>
        <mxCell id="0" />
        <mxCell id="1" parent="0" />
        <mxCell id="fTApm-Xp8Vw2N_FULC9P-1" value="users" style="shape=table;startSize=25;container=1;collapsible=0;childLayout=tableLayout;fixedRows=1;rowLines=1;fontStyle=1;align=center;resizeLast=1;" vertex="1" parent="1">
          <mxGeometry x="490" y="20" width="257" height="301" as="geometry" />
        </mxCell>
        <mxCell id="fTApm-Xp8Vw2N_FULC9P-2" style="shape=tableRow;horizontal=0;startSize=0;swimlaneHead=0;swimlaneBody=0;fillColor=none;collapsible=0;dropTarget=0;points=[[0,0.5],[1,0.5]];portConstraint=eastwest;top=0;left=0;right=0;bottom=0;" vertex="1" parent="fTApm-Xp8Vw2N_FULC9P-1">
          <mxGeometry y="25" width="257" height="46" as="geometry" />
        </mxCell>
        <mxCell id="fTApm-Xp8Vw2N_FULC9P-3" value="UUID" style="shape=partialRectangle;connectable=0;fillColor=none;top=0;left=0;bottom=0;right=0;align=left;spacingLeft=2;overflow=hidden;fontSize=11;" vertex="1" parent="fTApm-Xp8Vw2N_FULC9P-2">
          <mxGeometry width="70" height="46" as="geometry">
            <mxRectangle width="70" height="46" as="alternateBounds" />
          </mxGeometry>
        </mxCell>
        <mxCell id="fTApm-Xp8Vw2N_FULC9P-4" value="id" style="shape=partialRectangle;connectable=0;fillColor=none;top=0;left=0;bottom=0;right=0;align=left;spacingLeft=2;overflow=hidden;fontSize=11;" vertex="1" parent="fTApm-Xp8Vw2N_FULC9P-2">
          <mxGeometry x="70" width="165" height="46" as="geometry">
            <mxRectangle width="165" height="46" as="alternateBounds" />
          </mxGeometry>
        </mxCell>
        <mxCell id="fTApm-Xp8Vw2N_FULC9P-5" value="PK" style="shape=partialRectangle;connectable=0;fillColor=none;top=0;left=0;bottom=0;right=0;align=left;spacingLeft=2;overflow=hidden;fontSize=11;" vertex="1" parent="fTApm-Xp8Vw2N_FULC9P-2">
          <mxGeometry x="235" width="22" height="46" as="geometry">
            <mxRectangle width="22" height="46" as="alternateBounds" />
          </mxGeometry>
        </mxCell>
        <mxCell id="fTApm-Xp8Vw2N_FULC9P-6" style="shape=tableRow;horizontal=0;startSize=0;swimlaneHead=0;swimlaneBody=0;fillColor=none;collapsible=0;dropTarget=0;points=[[0,0.5],[1,0.5]];portConstraint=eastwest;top=0;left=0;right=0;bottom=0;" vertex="1" parent="fTApm-Xp8Vw2N_FULC9P-1">
          <mxGeometry y="71" width="257" height="46" as="geometry" />
        </mxCell>
        <mxCell id="fTApm-Xp8Vw2N_FULC9P-7" value="UUID" style="shape=partialRectangle;connectable=0;fillColor=none;top=0;left=0;bottom=0;right=0;align=left;spacingLeft=2;overflow=hidden;fontSize=11;" vertex="1" parent="fTApm-Xp8Vw2N_FULC9P-6">
          <mxGeometry width="70" height="46" as="geometry">
            <mxRectangle width="70" height="46" as="alternateBounds" />
          </mxGeometry>
        </mxCell>
        <mxCell id="fTApm-Xp8Vw2N_FULC9P-8" value="cognito_sub" style="shape=partialRectangle;connectable=0;fillColor=none;top=0;left=0;bottom=0;right=0;align=left;spacingLeft=2;overflow=hidden;fontSize=11;" vertex="1" parent="fTApm-Xp8Vw2N_FULC9P-6">
          <mxGeometry x="70" width="165" height="46" as="geometry">
            <mxRectangle width="165" height="46" as="alternateBounds" />
          </mxGeometry>
        </mxCell>
        <mxCell id="fTApm-Xp8Vw2N_FULC9P-9" value="" style="shape=partialRectangle;connectable=0;fillColor=none;top=0;left=0;bottom=0;right=0;align=left;spacingLeft=2;overflow=hidden;fontSize=11;" vertex="1" parent="fTApm-Xp8Vw2N_FULC9P-6">
          <mxGeometry x="235" width="22" height="46" as="geometry">
            <mxRectangle width="22" height="46" as="alternateBounds" />
          </mxGeometry>
        </mxCell>
        <mxCell id="fTApm-Xp8Vw2N_FULC9P-10" style="shape=tableRow;horizontal=0;startSize=0;swimlaneHead=0;swimlaneBody=0;fillColor=none;collapsible=0;dropTarget=0;points=[[0,0.5],[1,0.5]];portConstraint=eastwest;top=0;left=0;right=0;bottom=0;" vertex="1" parent="fTApm-Xp8Vw2N_FULC9P-1">
          <mxGeometry y="117" width="257" height="46" as="geometry" />
        </mxCell>
        <mxCell id="fTApm-Xp8Vw2N_FULC9P-11" value="TEXT" style="shape=partialRectangle;connectable=0;fillColor=none;top=0;left=0;bottom=0;right=0;align=left;spacingLeft=2;overflow=hidden;fontSize=11;" vertex="1" parent="fTApm-Xp8Vw2N_FULC9P-10">
          <mxGeometry width="70" height="46" as="geometry">
            <mxRectangle width="70" height="46" as="alternateBounds" />
          </mxGeometry>
        </mxCell>
        <mxCell id="fTApm-Xp8Vw2N_FULC9P-12" value="name" style="shape=partialRectangle;connectable=0;fillColor=none;top=0;left=0;bottom=0;right=0;align=left;spacingLeft=2;overflow=hidden;fontSize=11;" vertex="1" parent="fTApm-Xp8Vw2N_FULC9P-10">
          <mxGeometry x="70" width="165" height="46" as="geometry">
            <mxRectangle width="165" height="46" as="alternateBounds" />
          </mxGeometry>
        </mxCell>
        <mxCell id="fTApm-Xp8Vw2N_FULC9P-13" value="" style="shape=partialRectangle;connectable=0;fillColor=none;top=0;left=0;bottom=0;right=0;align=left;spacingLeft=2;overflow=hidden;fontSize=11;" vertex="1" parent="fTApm-Xp8Vw2N_FULC9P-10">
          <mxGeometry x="235" width="22" height="46" as="geometry">
            <mxRectangle width="22" height="46" as="alternateBounds" />
          </mxGeometry>
        </mxCell>
        <mxCell id="fTApm-Xp8Vw2N_FULC9P-14" style="shape=tableRow;horizontal=0;startSize=0;swimlaneHead=0;swimlaneBody=0;fillColor=none;collapsible=0;dropTarget=0;points=[[0,0.5],[1,0.5]];portConstraint=eastwest;top=0;left=0;right=0;bottom=0;" vertex="1" parent="fTApm-Xp8Vw2N_FULC9P-1">
          <mxGeometry y="163" width="257" height="46" as="geometry" />
        </mxCell>
        <mxCell id="fTApm-Xp8Vw2N_FULC9P-15" value="TEXT" style="shape=partialRectangle;connectable=0;fillColor=none;top=0;left=0;bottom=0;right=0;align=left;spacingLeft=2;overflow=hidden;fontSize=11;" vertex="1" parent="fTApm-Xp8Vw2N_FULC9P-14">
          <mxGeometry width="70" height="46" as="geometry">
            <mxRectangle width="70" height="46" as="alternateBounds" />
          </mxGeometry>
        </mxCell>
        <mxCell id="fTApm-Xp8Vw2N_FULC9P-16" value="email" style="shape=partialRectangle;connectable=0;fillColor=none;top=0;left=0;bottom=0;right=0;align=left;spacingLeft=2;overflow=hidden;fontSize=11;" vertex="1" parent="fTApm-Xp8Vw2N_FULC9P-14">
          <mxGeometry x="70" width="165" height="46" as="geometry">
            <mxRectangle width="165" height="46" as="alternateBounds" />
          </mxGeometry>
        </mxCell>
        <mxCell id="fTApm-Xp8Vw2N_FULC9P-17" value="" style="shape=partialRectangle;connectable=0;fillColor=none;top=0;left=0;bottom=0;right=0;align=left;spacingLeft=2;overflow=hidden;fontSize=11;" vertex="1" parent="fTApm-Xp8Vw2N_FULC9P-14">
          <mxGeometry x="235" width="22" height="46" as="geometry">
            <mxRectangle width="22" height="46" as="alternateBounds" />
          </mxGeometry>
        </mxCell>
        <mxCell id="fTApm-Xp8Vw2N_FULC9P-18" style="shape=tableRow;horizontal=0;startSize=0;swimlaneHead=0;swimlaneBody=0;fillColor=none;collapsible=0;dropTarget=0;points=[[0,0.5],[1,0.5]];portConstraint=eastwest;top=0;left=0;right=0;bottom=0;" vertex="1" parent="fTApm-Xp8Vw2N_FULC9P-1">
          <mxGeometry y="209" width="257" height="46" as="geometry" />
        </mxCell>
        <mxCell id="fTApm-Xp8Vw2N_FULC9P-19" value="TIMESTAMP" style="shape=partialRectangle;connectable=0;fillColor=none;top=0;left=0;bottom=0;right=0;align=left;spacingLeft=2;overflow=hidden;fontSize=11;" vertex="1" parent="fTApm-Xp8Vw2N_FULC9P-18">
          <mxGeometry width="70" height="46" as="geometry">
            <mxRectangle width="70" height="46" as="alternateBounds" />
          </mxGeometry>
        </mxCell>
        <mxCell id="fTApm-Xp8Vw2N_FULC9P-20" value="created_at" style="shape=partialRectangle;connectable=0;fillColor=none;top=0;left=0;bottom=0;right=0;align=left;spacingLeft=2;overflow=hidden;fontSize=11;" vertex="1" parent="fTApm-Xp8Vw2N_FULC9P-18">
          <mxGeometry x="70" width="165" height="46" as="geometry">
            <mxRectangle width="165" height="46" as="alternateBounds" />
          </mxGeometry>
        </mxCell>
        <mxCell id="fTApm-Xp8Vw2N_FULC9P-21" value="" style="shape=partialRectangle;connectable=0;fillColor=none;top=0;left=0;bottom=0;right=0;align=left;spacingLeft=2;overflow=hidden;fontSize=11;" vertex="1" parent="fTApm-Xp8Vw2N_FULC9P-18">
          <mxGeometry x="235" width="22" height="46" as="geometry">
            <mxRectangle width="22" height="46" as="alternateBounds" />
          </mxGeometry>
        </mxCell>
        <mxCell id="fTApm-Xp8Vw2N_FULC9P-22" style="shape=tableRow;horizontal=0;startSize=0;swimlaneHead=0;swimlaneBody=0;fillColor=none;collapsible=0;dropTarget=0;points=[[0,0.5],[1,0.5]];portConstraint=eastwest;top=0;left=0;right=0;bottom=0;" vertex="1" parent="fTApm-Xp8Vw2N_FULC9P-1">
          <mxGeometry y="255" width="257" height="46" as="geometry" />
        </mxCell>
        <mxCell id="fTApm-Xp8Vw2N_FULC9P-23" value="UUID" style="shape=partialRectangle;connectable=0;fillColor=none;top=0;left=0;bottom=0;right=0;align=left;spacingLeft=2;overflow=hidden;fontSize=11;" vertex="1" parent="fTApm-Xp8Vw2N_FULC9P-22">
          <mxGeometry width="70" height="46" as="geometry">
            <mxRectangle width="70" height="46" as="alternateBounds" />
          </mxGeometry>
        </mxCell>
        <mxCell id="fTApm-Xp8Vw2N_FULC9P-24" value="tenant_id" style="shape=partialRectangle;connectable=0;fillColor=none;top=0;left=0;bottom=0;right=0;align=left;spacingLeft=2;overflow=hidden;fontSize=11;" vertex="1" parent="fTApm-Xp8Vw2N_FULC9P-22">
          <mxGeometry x="70" width="165" height="46" as="geometry">
            <mxRectangle width="165" height="46" as="alternateBounds" />
          </mxGeometry>
        </mxCell>
        <mxCell id="fTApm-Xp8Vw2N_FULC9P-25" value="" style="shape=partialRectangle;connectable=0;fillColor=none;top=0;left=0;bottom=0;right=0;align=left;spacingLeft=2;overflow=hidden;fontSize=11;" vertex="1" parent="fTApm-Xp8Vw2N_FULC9P-22">
          <mxGeometry x="235" width="22" height="46" as="geometry">
            <mxRectangle width="22" height="46" as="alternateBounds" />
          </mxGeometry>
        </mxCell>
        <mxCell id="fTApm-Xp8Vw2N_FULC9P-26" value="pocs" style="shape=table;startSize=25;container=1;collapsible=0;childLayout=tableLayout;fixedRows=1;rowLines=1;fontStyle=1;align=center;resizeLast=1;" vertex="1" parent="1">
          <mxGeometry x="110" y="20" width="252" height="430" as="geometry" />
        </mxCell>
        <mxCell id="fTApm-Xp8Vw2N_FULC9P-27" style="shape=tableRow;horizontal=0;startSize=0;swimlaneHead=0;swimlaneBody=0;fillColor=none;collapsible=0;dropTarget=0;points=[[0,0.5],[1,0.5]];portConstraint=eastwest;top=0;left=0;right=0;bottom=0;" vertex="1" parent="fTApm-Xp8Vw2N_FULC9P-26">
          <mxGeometry y="25" width="252" height="45" as="geometry" />
        </mxCell>
        <mxCell id="fTApm-Xp8Vw2N_FULC9P-28" value="UUID" style="shape=partialRectangle;connectable=0;fillColor=none;top=0;left=0;bottom=0;right=0;align=left;spacingLeft=2;overflow=hidden;fontSize=11;" vertex="1" parent="fTApm-Xp8Vw2N_FULC9P-27">
          <mxGeometry width="80" height="45" as="geometry">
            <mxRectangle width="80" height="45" as="alternateBounds" />
          </mxGeometry>
        </mxCell>
        <mxCell id="fTApm-Xp8Vw2N_FULC9P-29" value="id" style="shape=partialRectangle;connectable=0;fillColor=none;top=0;left=0;bottom=0;right=0;align=left;spacingLeft=2;overflow=hidden;fontSize=11;" vertex="1" parent="fTApm-Xp8Vw2N_FULC9P-27">
          <mxGeometry x="80" width="150" height="45" as="geometry">
            <mxRectangle width="150" height="45" as="alternateBounds" />
          </mxGeometry>
        </mxCell>
        <mxCell id="fTApm-Xp8Vw2N_FULC9P-30" value="PK" style="shape=partialRectangle;connectable=0;fillColor=none;top=0;left=0;bottom=0;right=0;align=left;spacingLeft=2;overflow=hidden;fontSize=11;" vertex="1" parent="fTApm-Xp8Vw2N_FULC9P-27">
          <mxGeometry x="230" width="22" height="45" as="geometry">
            <mxRectangle width="22" height="45" as="alternateBounds" />
          </mxGeometry>
        </mxCell>
        <mxCell id="fTApm-Xp8Vw2N_FULC9P-31" style="shape=tableRow;horizontal=0;startSize=0;swimlaneHead=0;swimlaneBody=0;fillColor=none;collapsible=0;dropTarget=0;points=[[0,0.5],[1,0.5]];portConstraint=eastwest;top=0;left=0;right=0;bottom=0;" vertex="1" parent="fTApm-Xp8Vw2N_FULC9P-26">
          <mxGeometry y="70" width="252" height="45" as="geometry" />
        </mxCell>
        <mxCell id="fTApm-Xp8Vw2N_FULC9P-32" value="UUID" style="shape=partialRectangle;connectable=0;fillColor=none;top=0;left=0;bottom=0;right=0;align=left;spacingLeft=2;overflow=hidden;fontSize=11;" vertex="1" parent="fTApm-Xp8Vw2N_FULC9P-31">
          <mxGeometry width="80" height="45" as="geometry">
            <mxRectangle width="80" height="45" as="alternateBounds" />
          </mxGeometry>
        </mxCell>
        <mxCell id="fTApm-Xp8Vw2N_FULC9P-33" value="user_id" style="shape=partialRectangle;connectable=0;fillColor=none;top=0;left=0;bottom=0;right=0;align=left;spacingLeft=2;overflow=hidden;fontSize=11;" vertex="1" parent="fTApm-Xp8Vw2N_FULC9P-31">
          <mxGeometry x="80" width="150" height="45" as="geometry">
            <mxRectangle width="150" height="45" as="alternateBounds" />
          </mxGeometry>
        </mxCell>
        <mxCell id="fTApm-Xp8Vw2N_FULC9P-34" value="FK" style="shape=partialRectangle;connectable=0;fillColor=none;top=0;left=0;bottom=0;right=0;align=left;spacingLeft=2;overflow=hidden;fontSize=11;" vertex="1" parent="fTApm-Xp8Vw2N_FULC9P-31">
          <mxGeometry x="230" width="22" height="45" as="geometry">
            <mxRectangle width="22" height="45" as="alternateBounds" />
          </mxGeometry>
        </mxCell>
        <mxCell id="fTApm-Xp8Vw2N_FULC9P-35" style="shape=tableRow;horizontal=0;startSize=0;swimlaneHead=0;swimlaneBody=0;fillColor=none;collapsible=0;dropTarget=0;points=[[0,0.5],[1,0.5]];portConstraint=eastwest;top=0;left=0;right=0;bottom=0;" vertex="1" parent="fTApm-Xp8Vw2N_FULC9P-26">
          <mxGeometry y="115" width="252" height="45" as="geometry" />
        </mxCell>
        <mxCell id="fTApm-Xp8Vw2N_FULC9P-36" value="TEXT" style="shape=partialRectangle;connectable=0;fillColor=none;top=0;left=0;bottom=0;right=0;align=left;spacingLeft=2;overflow=hidden;fontSize=11;" vertex="1" parent="fTApm-Xp8Vw2N_FULC9P-35">
          <mxGeometry width="80" height="45" as="geometry">
            <mxRectangle width="80" height="45" as="alternateBounds" />
          </mxGeometry>
        </mxCell>
        <mxCell id="fTApm-Xp8Vw2N_FULC9P-37" value="title" style="shape=partialRectangle;connectable=0;fillColor=none;top=0;left=0;bottom=0;right=0;align=left;spacingLeft=2;overflow=hidden;fontSize=11;" vertex="1" parent="fTApm-Xp8Vw2N_FULC9P-35">
          <mxGeometry x="80" width="150" height="45" as="geometry">
            <mxRectangle width="150" height="45" as="alternateBounds" />
          </mxGeometry>
        </mxCell>
        <mxCell id="fTApm-Xp8Vw2N_FULC9P-38" value="" style="shape=partialRectangle;connectable=0;fillColor=none;top=0;left=0;bottom=0;right=0;align=left;spacingLeft=2;overflow=hidden;fontSize=11;" vertex="1" parent="fTApm-Xp8Vw2N_FULC9P-35">
          <mxGeometry x="230" width="22" height="45" as="geometry">
            <mxRectangle width="22" height="45" as="alternateBounds" />
          </mxGeometry>
        </mxCell>
        <mxCell id="fTApm-Xp8Vw2N_FULC9P-39" style="shape=tableRow;horizontal=0;startSize=0;swimlaneHead=0;swimlaneBody=0;fillColor=none;collapsible=0;dropTarget=0;points=[[0,0.5],[1,0.5]];portConstraint=eastwest;top=0;left=0;right=0;bottom=0;" vertex="1" parent="fTApm-Xp8Vw2N_FULC9P-26">
          <mxGeometry y="160" width="252" height="45" as="geometry" />
        </mxCell>
        <mxCell id="fTApm-Xp8Vw2N_FULC9P-40" value="TEXT" style="shape=partialRectangle;connectable=0;fillColor=none;top=0;left=0;bottom=0;right=0;align=left;spacingLeft=2;overflow=hidden;fontSize=11;" vertex="1" parent="fTApm-Xp8Vw2N_FULC9P-39">
          <mxGeometry width="80" height="45" as="geometry">
            <mxRectangle width="80" height="45" as="alternateBounds" />
          </mxGeometry>
        </mxCell>
        <mxCell id="fTApm-Xp8Vw2N_FULC9P-41" value="description" style="shape=partialRectangle;connectable=0;fillColor=none;top=0;left=0;bottom=0;right=0;align=left;spacingLeft=2;overflow=hidden;fontSize=11;" vertex="1" parent="fTApm-Xp8Vw2N_FULC9P-39">
          <mxGeometry x="80" width="150" height="45" as="geometry">
            <mxRectangle width="150" height="45" as="alternateBounds" />
          </mxGeometry>
        </mxCell>
        <mxCell id="fTApm-Xp8Vw2N_FULC9P-42" value="" style="shape=partialRectangle;connectable=0;fillColor=none;top=0;left=0;bottom=0;right=0;align=left;spacingLeft=2;overflow=hidden;fontSize=11;" vertex="1" parent="fTApm-Xp8Vw2N_FULC9P-39">
          <mxGeometry x="230" width="22" height="45" as="geometry">
            <mxRectangle width="22" height="45" as="alternateBounds" />
          </mxGeometry>
        </mxCell>
        <mxCell id="fTApm-Xp8Vw2N_FULC9P-43" style="shape=tableRow;horizontal=0;startSize=0;swimlaneHead=0;swimlaneBody=0;fillColor=none;collapsible=0;dropTarget=0;points=[[0,0.5],[1,0.5]];portConstraint=eastwest;top=0;left=0;right=0;bottom=0;" vertex="1" parent="fTApm-Xp8Vw2N_FULC9P-26">
          <mxGeometry y="205" width="252" height="45" as="geometry" />
        </mxCell>
        <mxCell id="fTApm-Xp8Vw2N_FULC9P-44" value="TEXT" style="shape=partialRectangle;connectable=0;fillColor=none;top=0;left=0;bottom=0;right=0;align=left;spacingLeft=2;overflow=hidden;fontSize=11;" vertex="1" parent="fTApm-Xp8Vw2N_FULC9P-43">
          <mxGeometry width="80" height="45" as="geometry">
            <mxRectangle width="80" height="45" as="alternateBounds" />
          </mxGeometry>
        </mxCell>
        <mxCell id="fTApm-Xp8Vw2N_FULC9P-45" value="repo_url" style="shape=partialRectangle;connectable=0;fillColor=none;top=0;left=0;bottom=0;right=0;align=left;spacingLeft=2;overflow=hidden;fontSize=11;" vertex="1" parent="fTApm-Xp8Vw2N_FULC9P-43">
          <mxGeometry x="80" width="150" height="45" as="geometry">
            <mxRectangle width="150" height="45" as="alternateBounds" />
          </mxGeometry>
        </mxCell>
        <mxCell id="fTApm-Xp8Vw2N_FULC9P-46" value="" style="shape=partialRectangle;connectable=0;fillColor=none;top=0;left=0;bottom=0;right=0;align=left;spacingLeft=2;overflow=hidden;fontSize=11;" vertex="1" parent="fTApm-Xp8Vw2N_FULC9P-43">
          <mxGeometry x="230" width="22" height="45" as="geometry">
            <mxRectangle width="22" height="45" as="alternateBounds" />
          </mxGeometry>
        </mxCell>
        <mxCell id="fTApm-Xp8Vw2N_FULC9P-47" style="shape=tableRow;horizontal=0;startSize=0;swimlaneHead=0;swimlaneBody=0;fillColor=none;collapsible=0;dropTarget=0;points=[[0,0.5],[1,0.5]];portConstraint=eastwest;top=0;left=0;right=0;bottom=0;" vertex="1" parent="fTApm-Xp8Vw2N_FULC9P-26">
          <mxGeometry y="250" width="252" height="45" as="geometry" />
        </mxCell>
        <mxCell id="fTApm-Xp8Vw2N_FULC9P-48" value="TEXT[]" style="shape=partialRectangle;connectable=0;fillColor=none;top=0;left=0;bottom=0;right=0;align=left;spacingLeft=2;overflow=hidden;fontSize=11;" vertex="1" parent="fTApm-Xp8Vw2N_FULC9P-47">
          <mxGeometry width="80" height="45" as="geometry">
            <mxRectangle width="80" height="45" as="alternateBounds" />
          </mxGeometry>
        </mxCell>
        <mxCell id="fTApm-Xp8Vw2N_FULC9P-49" value="tags" style="shape=partialRectangle;connectable=0;fillColor=none;top=0;left=0;bottom=0;right=0;align=left;spacingLeft=2;overflow=hidden;fontSize=11;" vertex="1" parent="fTApm-Xp8Vw2N_FULC9P-47">
          <mxGeometry x="80" width="150" height="45" as="geometry">
            <mxRectangle width="150" height="45" as="alternateBounds" />
          </mxGeometry>
        </mxCell>
        <mxCell id="fTApm-Xp8Vw2N_FULC9P-50" value="" style="shape=partialRectangle;connectable=0;fillColor=none;top=0;left=0;bottom=0;right=0;align=left;spacingLeft=2;overflow=hidden;fontSize=11;" vertex="1" parent="fTApm-Xp8Vw2N_FULC9P-47">
          <mxGeometry x="230" width="22" height="45" as="geometry">
            <mxRectangle width="22" height="45" as="alternateBounds" />
          </mxGeometry>
        </mxCell>
        <mxCell id="fTApm-Xp8Vw2N_FULC9P-51" style="shape=tableRow;horizontal=0;startSize=0;swimlaneHead=0;swimlaneBody=0;fillColor=none;collapsible=0;dropTarget=0;points=[[0,0.5],[1,0.5]];portConstraint=eastwest;top=0;left=0;right=0;bottom=0;" vertex="1" parent="fTApm-Xp8Vw2N_FULC9P-26">
          <mxGeometry y="295" width="252" height="45" as="geometry" />
        </mxCell>
        <mxCell id="fTApm-Xp8Vw2N_FULC9P-52" value="TEXT[]" style="shape=partialRectangle;connectable=0;fillColor=none;top=0;left=0;bottom=0;right=0;align=left;spacingLeft=2;overflow=hidden;fontSize=11;" vertex="1" parent="fTApm-Xp8Vw2N_FULC9P-51">
          <mxGeometry width="80" height="45" as="geometry">
            <mxRectangle width="80" height="45" as="alternateBounds" />
          </mxGeometry>
        </mxCell>
        <mxCell id="fTApm-Xp8Vw2N_FULC9P-53" value="languages" style="shape=partialRectangle;connectable=0;fillColor=none;top=0;left=0;bottom=0;right=0;align=left;spacingLeft=2;overflow=hidden;fontSize=11;" vertex="1" parent="fTApm-Xp8Vw2N_FULC9P-51">
          <mxGeometry x="80" width="150" height="45" as="geometry">
            <mxRectangle width="150" height="45" as="alternateBounds" />
          </mxGeometry>
        </mxCell>
        <mxCell id="fTApm-Xp8Vw2N_FULC9P-54" value="" style="shape=partialRectangle;connectable=0;fillColor=none;top=0;left=0;bottom=0;right=0;align=left;spacingLeft=2;overflow=hidden;fontSize=11;" vertex="1" parent="fTApm-Xp8Vw2N_FULC9P-51">
          <mxGeometry x="230" width="22" height="45" as="geometry">
            <mxRectangle width="22" height="45" as="alternateBounds" />
          </mxGeometry>
        </mxCell>
        <mxCell id="fTApm-Xp8Vw2N_FULC9P-55" style="shape=tableRow;horizontal=0;startSize=0;swimlaneHead=0;swimlaneBody=0;fillColor=none;collapsible=0;dropTarget=0;points=[[0,0.5],[1,0.5]];portConstraint=eastwest;top=0;left=0;right=0;bottom=0;" vertex="1" parent="fTApm-Xp8Vw2N_FULC9P-26">
          <mxGeometry y="340" width="252" height="45" as="geometry" />
        </mxCell>
        <mxCell id="fTApm-Xp8Vw2N_FULC9P-56" value="TIMESTAMP" style="shape=partialRectangle;connectable=0;fillColor=none;top=0;left=0;bottom=0;right=0;align=left;spacingLeft=2;overflow=hidden;fontSize=11;" vertex="1" parent="fTApm-Xp8Vw2N_FULC9P-55">
          <mxGeometry width="80" height="45" as="geometry">
            <mxRectangle width="80" height="45" as="alternateBounds" />
          </mxGeometry>
        </mxCell>
        <mxCell id="fTApm-Xp8Vw2N_FULC9P-57" value="created_at" style="shape=partialRectangle;connectable=0;fillColor=none;top=0;left=0;bottom=0;right=0;align=left;spacingLeft=2;overflow=hidden;fontSize=11;" vertex="1" parent="fTApm-Xp8Vw2N_FULC9P-55">
          <mxGeometry x="80" width="150" height="45" as="geometry">
            <mxRectangle width="150" height="45" as="alternateBounds" />
          </mxGeometry>
        </mxCell>
        <mxCell id="fTApm-Xp8Vw2N_FULC9P-58" value="" style="shape=partialRectangle;connectable=0;fillColor=none;top=0;left=0;bottom=0;right=0;align=left;spacingLeft=2;overflow=hidden;fontSize=11;" vertex="1" parent="fTApm-Xp8Vw2N_FULC9P-55">
          <mxGeometry x="230" width="22" height="45" as="geometry">
            <mxRectangle width="22" height="45" as="alternateBounds" />
          </mxGeometry>
        </mxCell>
        <mxCell id="fTApm-Xp8Vw2N_FULC9P-59" style="shape=tableRow;horizontal=0;startSize=0;swimlaneHead=0;swimlaneBody=0;fillColor=none;collapsible=0;dropTarget=0;points=[[0,0.5],[1,0.5]];portConstraint=eastwest;top=0;left=0;right=0;bottom=0;" vertex="1" parent="fTApm-Xp8Vw2N_FULC9P-26">
          <mxGeometry y="385" width="252" height="45" as="geometry" />
        </mxCell>
        <mxCell id="fTApm-Xp8Vw2N_FULC9P-60" value="UUID" style="shape=partialRectangle;connectable=0;fillColor=none;top=0;left=0;bottom=0;right=0;align=left;spacingLeft=2;overflow=hidden;fontSize=11;" vertex="1" parent="fTApm-Xp8Vw2N_FULC9P-59">
          <mxGeometry width="80" height="45" as="geometry">
            <mxRectangle width="80" height="45" as="alternateBounds" />
          </mxGeometry>
        </mxCell>
        <mxCell id="fTApm-Xp8Vw2N_FULC9P-61" value="tenant_id" style="shape=partialRectangle;connectable=0;fillColor=none;top=0;left=0;bottom=0;right=0;align=left;spacingLeft=2;overflow=hidden;fontSize=11;" vertex="1" parent="fTApm-Xp8Vw2N_FULC9P-59">
          <mxGeometry x="80" width="150" height="45" as="geometry">
            <mxRectangle width="150" height="45" as="alternateBounds" />
          </mxGeometry>
        </mxCell>
        <mxCell id="fTApm-Xp8Vw2N_FULC9P-62" value="" style="shape=partialRectangle;connectable=0;fillColor=none;top=0;left=0;bottom=0;right=0;align=left;spacingLeft=2;overflow=hidden;fontSize=11;" vertex="1" parent="fTApm-Xp8Vw2N_FULC9P-59">
          <mxGeometry x="230" width="22" height="45" as="geometry">
            <mxRectangle width="22" height="45" as="alternateBounds" />
          </mxGeometry>
        </mxCell>
        <mxCell id="fTApm-Xp8Vw2N_FULC9P-63" value="katas" style="shape=table;startSize=25;container=1;collapsible=0;childLayout=tableLayout;fixedRows=1;rowLines=1;fontStyle=1;align=center;resizeLast=1;" vertex="1" parent="1">
          <mxGeometry x="834" y="790" width="247" height="301" as="geometry" />
        </mxCell>
        <mxCell id="fTApm-Xp8Vw2N_FULC9P-64" style="shape=tableRow;horizontal=0;startSize=0;swimlaneHead=0;swimlaneBody=0;fillColor=none;collapsible=0;dropTarget=0;points=[[0,0.5],[1,0.5]];portConstraint=eastwest;top=0;left=0;right=0;bottom=0;" vertex="1" parent="fTApm-Xp8Vw2N_FULC9P-63">
          <mxGeometry y="25" width="247" height="46" as="geometry" />
        </mxCell>
        <mxCell id="fTApm-Xp8Vw2N_FULC9P-65" value="UUID" style="shape=partialRectangle;connectable=0;fillColor=none;top=0;left=0;bottom=0;right=0;align=left;spacingLeft=2;overflow=hidden;fontSize=11;" vertex="1" parent="fTApm-Xp8Vw2N_FULC9P-64">
          <mxGeometry width="80" height="46" as="geometry">
            <mxRectangle width="80" height="46" as="alternateBounds" />
          </mxGeometry>
        </mxCell>
        <mxCell id="fTApm-Xp8Vw2N_FULC9P-66" value="id" style="shape=partialRectangle;connectable=0;fillColor=none;top=0;left=0;bottom=0;right=0;align=left;spacingLeft=2;overflow=hidden;fontSize=11;" vertex="1" parent="fTApm-Xp8Vw2N_FULC9P-64">
          <mxGeometry x="80" width="145" height="46" as="geometry">
            <mxRectangle width="145" height="46" as="alternateBounds" />
          </mxGeometry>
        </mxCell>
        <mxCell id="fTApm-Xp8Vw2N_FULC9P-67" value="PK" style="shape=partialRectangle;connectable=0;fillColor=none;top=0;left=0;bottom=0;right=0;align=left;spacingLeft=2;overflow=hidden;fontSize=11;" vertex="1" parent="fTApm-Xp8Vw2N_FULC9P-64">
          <mxGeometry x="225" width="22" height="46" as="geometry">
            <mxRectangle width="22" height="46" as="alternateBounds" />
          </mxGeometry>
        </mxCell>
        <mxCell id="fTApm-Xp8Vw2N_FULC9P-68" style="shape=tableRow;horizontal=0;startSize=0;swimlaneHead=0;swimlaneBody=0;fillColor=none;collapsible=0;dropTarget=0;points=[[0,0.5],[1,0.5]];portConstraint=eastwest;top=0;left=0;right=0;bottom=0;" vertex="1" parent="fTApm-Xp8Vw2N_FULC9P-63">
          <mxGeometry y="71" width="247" height="46" as="geometry" />
        </mxCell>
        <mxCell id="fTApm-Xp8Vw2N_FULC9P-69" value="UUID" style="shape=partialRectangle;connectable=0;fillColor=none;top=0;left=0;bottom=0;right=0;align=left;spacingLeft=2;overflow=hidden;fontSize=11;" vertex="1" parent="fTApm-Xp8Vw2N_FULC9P-68">
          <mxGeometry width="80" height="46" as="geometry">
            <mxRectangle width="80" height="46" as="alternateBounds" />
          </mxGeometry>
        </mxCell>
        <mxCell id="fTApm-Xp8Vw2N_FULC9P-70" value="user_id" style="shape=partialRectangle;connectable=0;fillColor=none;top=0;left=0;bottom=0;right=0;align=left;spacingLeft=2;overflow=hidden;fontSize=11;" vertex="1" parent="fTApm-Xp8Vw2N_FULC9P-68">
          <mxGeometry x="80" width="145" height="46" as="geometry">
            <mxRectangle width="145" height="46" as="alternateBounds" />
          </mxGeometry>
        </mxCell>
        <mxCell id="fTApm-Xp8Vw2N_FULC9P-71" value="FK" style="shape=partialRectangle;connectable=0;fillColor=none;top=0;left=0;bottom=0;right=0;align=left;spacingLeft=2;overflow=hidden;fontSize=11;" vertex="1" parent="fTApm-Xp8Vw2N_FULC9P-68">
          <mxGeometry x="225" width="22" height="46" as="geometry">
            <mxRectangle width="22" height="46" as="alternateBounds" />
          </mxGeometry>
        </mxCell>
        <mxCell id="fTApm-Xp8Vw2N_FULC9P-72" style="shape=tableRow;horizontal=0;startSize=0;swimlaneHead=0;swimlaneBody=0;fillColor=none;collapsible=0;dropTarget=0;points=[[0,0.5],[1,0.5]];portConstraint=eastwest;top=0;left=0;right=0;bottom=0;" vertex="1" parent="fTApm-Xp8Vw2N_FULC9P-63">
          <mxGeometry y="117" width="247" height="46" as="geometry" />
        </mxCell>
        <mxCell id="fTApm-Xp8Vw2N_FULC9P-73" value="TIMESTAMP" style="shape=partialRectangle;connectable=0;fillColor=none;top=0;left=0;bottom=0;right=0;align=left;spacingLeft=2;overflow=hidden;fontSize=11;" vertex="1" parent="fTApm-Xp8Vw2N_FULC9P-72">
          <mxGeometry width="80" height="46" as="geometry">
            <mxRectangle width="80" height="46" as="alternateBounds" />
          </mxGeometry>
        </mxCell>
        <mxCell id="fTApm-Xp8Vw2N_FULC9P-74" value="started_at" style="shape=partialRectangle;connectable=0;fillColor=none;top=0;left=0;bottom=0;right=0;align=left;spacingLeft=2;overflow=hidden;fontSize=11;" vertex="1" parent="fTApm-Xp8Vw2N_FULC9P-72">
          <mxGeometry x="80" width="145" height="46" as="geometry">
            <mxRectangle width="145" height="46" as="alternateBounds" />
          </mxGeometry>
        </mxCell>
        <mxCell id="fTApm-Xp8Vw2N_FULC9P-75" value="" style="shape=partialRectangle;connectable=0;fillColor=none;top=0;left=0;bottom=0;right=0;align=left;spacingLeft=2;overflow=hidden;fontSize=11;" vertex="1" parent="fTApm-Xp8Vw2N_FULC9P-72">
          <mxGeometry x="225" width="22" height="46" as="geometry">
            <mxRectangle width="22" height="46" as="alternateBounds" />
          </mxGeometry>
        </mxCell>
        <mxCell id="fTApm-Xp8Vw2N_FULC9P-76" style="shape=tableRow;horizontal=0;startSize=0;swimlaneHead=0;swimlaneBody=0;fillColor=none;collapsible=0;dropTarget=0;points=[[0,0.5],[1,0.5]];portConstraint=eastwest;top=0;left=0;right=0;bottom=0;" vertex="1" parent="fTApm-Xp8Vw2N_FULC9P-63">
          <mxGeometry y="163" width="247" height="46" as="geometry" />
        </mxCell>
        <mxCell id="fTApm-Xp8Vw2N_FULC9P-77" value="TIMESTAMP" style="shape=partialRectangle;connectable=0;fillColor=none;top=0;left=0;bottom=0;right=0;align=left;spacingLeft=2;overflow=hidden;fontSize=11;" vertex="1" parent="fTApm-Xp8Vw2N_FULC9P-76">
          <mxGeometry width="80" height="46" as="geometry">
            <mxRectangle width="80" height="46" as="alternateBounds" />
          </mxGeometry>
        </mxCell>
        <mxCell id="fTApm-Xp8Vw2N_FULC9P-78" value="ended_at" style="shape=partialRectangle;connectable=0;fillColor=none;top=0;left=0;bottom=0;right=0;align=left;spacingLeft=2;overflow=hidden;fontSize=11;" vertex="1" parent="fTApm-Xp8Vw2N_FULC9P-76">
          <mxGeometry x="80" width="145" height="46" as="geometry">
            <mxRectangle width="145" height="46" as="alternateBounds" />
          </mxGeometry>
        </mxCell>
        <mxCell id="fTApm-Xp8Vw2N_FULC9P-79" value="" style="shape=partialRectangle;connectable=0;fillColor=none;top=0;left=0;bottom=0;right=0;align=left;spacingLeft=2;overflow=hidden;fontSize=11;" vertex="1" parent="fTApm-Xp8Vw2N_FULC9P-76">
          <mxGeometry x="225" width="22" height="46" as="geometry">
            <mxRectangle width="22" height="46" as="alternateBounds" />
          </mxGeometry>
        </mxCell>
        <mxCell id="fTApm-Xp8Vw2N_FULC9P-80" style="shape=tableRow;horizontal=0;startSize=0;swimlaneHead=0;swimlaneBody=0;fillColor=none;collapsible=0;dropTarget=0;points=[[0,0.5],[1,0.5]];portConstraint=eastwest;top=0;left=0;right=0;bottom=0;" vertex="1" parent="fTApm-Xp8Vw2N_FULC9P-63">
          <mxGeometry y="209" width="247" height="46" as="geometry" />
        </mxCell>
        <mxCell id="fTApm-Xp8Vw2N_FULC9P-81" value="TEXT" style="shape=partialRectangle;connectable=0;fillColor=none;top=0;left=0;bottom=0;right=0;align=left;spacingLeft=2;overflow=hidden;fontSize=11;" vertex="1" parent="fTApm-Xp8Vw2N_FULC9P-80">
          <mxGeometry width="80" height="46" as="geometry">
            <mxRectangle width="80" height="46" as="alternateBounds" />
          </mxGeometry>
        </mxCell>
        <mxCell id="fTApm-Xp8Vw2N_FULC9P-82" value="status" style="shape=partialRectangle;connectable=0;fillColor=none;top=0;left=0;bottom=0;right=0;align=left;spacingLeft=2;overflow=hidden;fontSize=11;" vertex="1" parent="fTApm-Xp8Vw2N_FULC9P-80">
          <mxGeometry x="80" width="145" height="46" as="geometry">
            <mxRectangle width="145" height="46" as="alternateBounds" />
          </mxGeometry>
        </mxCell>
        <mxCell id="fTApm-Xp8Vw2N_FULC9P-83" value="" style="shape=partialRectangle;connectable=0;fillColor=none;top=0;left=0;bottom=0;right=0;align=left;spacingLeft=2;overflow=hidden;fontSize=11;" vertex="1" parent="fTApm-Xp8Vw2N_FULC9P-80">
          <mxGeometry x="225" width="22" height="46" as="geometry">
            <mxRectangle width="22" height="46" as="alternateBounds" />
          </mxGeometry>
        </mxCell>
        <mxCell id="fTApm-Xp8Vw2N_FULC9P-84" style="shape=tableRow;horizontal=0;startSize=0;swimlaneHead=0;swimlaneBody=0;fillColor=none;collapsible=0;dropTarget=0;points=[[0,0.5],[1,0.5]];portConstraint=eastwest;top=0;left=0;right=0;bottom=0;" vertex="1" parent="fTApm-Xp8Vw2N_FULC9P-63">
          <mxGeometry y="255" width="247" height="46" as="geometry" />
        </mxCell>
        <mxCell id="fTApm-Xp8Vw2N_FULC9P-85" value="UUID" style="shape=partialRectangle;connectable=0;fillColor=none;top=0;left=0;bottom=0;right=0;align=left;spacingLeft=2;overflow=hidden;fontSize=11;" vertex="1" parent="fTApm-Xp8Vw2N_FULC9P-84">
          <mxGeometry width="80" height="46" as="geometry">
            <mxRectangle width="80" height="46" as="alternateBounds" />
          </mxGeometry>
        </mxCell>
        <mxCell id="fTApm-Xp8Vw2N_FULC9P-86" value="tenant_id" style="shape=partialRectangle;connectable=0;fillColor=none;top=0;left=0;bottom=0;right=0;align=left;spacingLeft=2;overflow=hidden;fontSize=11;" vertex="1" parent="fTApm-Xp8Vw2N_FULC9P-84">
          <mxGeometry x="80" width="145" height="46" as="geometry">
            <mxRectangle width="145" height="46" as="alternateBounds" />
          </mxGeometry>
        </mxCell>
        <mxCell id="fTApm-Xp8Vw2N_FULC9P-87" value="" style="shape=partialRectangle;connectable=0;fillColor=none;top=0;left=0;bottom=0;right=0;align=left;spacingLeft=2;overflow=hidden;fontSize=11;" vertex="1" parent="fTApm-Xp8Vw2N_FULC9P-84">
          <mxGeometry x="225" width="22" height="46" as="geometry">
            <mxRectangle width="22" height="46" as="alternateBounds" />
          </mxGeometry>
        </mxCell>
        <mxCell id="fTApm-Xp8Vw2N_FULC9P-88" value="rooms" style="shape=table;startSize=25;container=1;collapsible=0;childLayout=tableLayout;fixedRows=1;rowLines=1;fontStyle=1;align=center;resizeLast=1;" vertex="1" parent="1">
          <mxGeometry x="861.5" y="420.5" width="198" height="301" as="geometry" />
        </mxCell>
        <mxCell id="fTApm-Xp8Vw2N_FULC9P-89" style="shape=tableRow;horizontal=0;startSize=0;swimlaneHead=0;swimlaneBody=0;fillColor=none;collapsible=0;dropTarget=0;points=[[0,0.5],[1,0.5]];portConstraint=eastwest;top=0;left=0;right=0;bottom=0;" vertex="1" parent="fTApm-Xp8Vw2N_FULC9P-88">
          <mxGeometry y="25" width="198" height="46" as="geometry" />
        </mxCell>
        <mxCell id="fTApm-Xp8Vw2N_FULC9P-90" value="UUID" style="shape=partialRectangle;connectable=0;fillColor=none;top=0;left=0;bottom=0;right=0;align=left;spacingLeft=2;overflow=hidden;fontSize=11;" vertex="1" parent="fTApm-Xp8Vw2N_FULC9P-89">
          <mxGeometry width="38.5" height="46" as="geometry">
            <mxRectangle width="38.5" height="46" as="alternateBounds" />
          </mxGeometry>
        </mxCell>
        <mxCell id="fTApm-Xp8Vw2N_FULC9P-91" value="id" style="shape=partialRectangle;connectable=0;fillColor=none;top=0;left=0;bottom=0;right=0;align=left;spacingLeft=2;overflow=hidden;fontSize=11;" vertex="1" parent="fTApm-Xp8Vw2N_FULC9P-89">
          <mxGeometry x="38.5" width="137.5" height="46" as="geometry">
            <mxRectangle width="137.5" height="46" as="alternateBounds" />
          </mxGeometry>
        </mxCell>
        <mxCell id="fTApm-Xp8Vw2N_FULC9P-92" value="PK" style="shape=partialRectangle;connectable=0;fillColor=none;top=0;left=0;bottom=0;right=0;align=left;spacingLeft=2;overflow=hidden;fontSize=11;" vertex="1" parent="fTApm-Xp8Vw2N_FULC9P-89">
          <mxGeometry x="176" width="22" height="46" as="geometry">
            <mxRectangle width="22" height="46" as="alternateBounds" />
          </mxGeometry>
        </mxCell>
        <mxCell id="fTApm-Xp8Vw2N_FULC9P-93" style="shape=tableRow;horizontal=0;startSize=0;swimlaneHead=0;swimlaneBody=0;fillColor=none;collapsible=0;dropTarget=0;points=[[0,0.5],[1,0.5]];portConstraint=eastwest;top=0;left=0;right=0;bottom=0;" vertex="1" parent="fTApm-Xp8Vw2N_FULC9P-88">
          <mxGeometry y="71" width="198" height="46" as="geometry" />
        </mxCell>
        <mxCell id="fTApm-Xp8Vw2N_FULC9P-94" value="UUID" style="shape=partialRectangle;connectable=0;fillColor=none;top=0;left=0;bottom=0;right=0;align=left;spacingLeft=2;overflow=hidden;fontSize=11;" vertex="1" parent="fTApm-Xp8Vw2N_FULC9P-93">
          <mxGeometry width="38.5" height="46" as="geometry">
            <mxRectangle width="38.5" height="46" as="alternateBounds" />
          </mxGeometry>
        </mxCell>
        <mxCell id="fTApm-Xp8Vw2N_FULC9P-95" value="kata_id" style="shape=partialRectangle;connectable=0;fillColor=none;top=0;left=0;bottom=0;right=0;align=left;spacingLeft=2;overflow=hidden;fontSize=11;" vertex="1" parent="fTApm-Xp8Vw2N_FULC9P-93">
          <mxGeometry x="38.5" width="137.5" height="46" as="geometry">
            <mxRectangle width="137.5" height="46" as="alternateBounds" />
          </mxGeometry>
        </mxCell>
        <mxCell id="fTApm-Xp8Vw2N_FULC9P-96" value="FK" style="shape=partialRectangle;connectable=0;fillColor=none;top=0;left=0;bottom=0;right=0;align=left;spacingLeft=2;overflow=hidden;fontSize=11;" vertex="1" parent="fTApm-Xp8Vw2N_FULC9P-93">
          <mxGeometry x="176" width="22" height="46" as="geometry">
            <mxRectangle width="22" height="46" as="alternateBounds" />
          </mxGeometry>
        </mxCell>
        <mxCell id="fTApm-Xp8Vw2N_FULC9P-97" style="shape=tableRow;horizontal=0;startSize=0;swimlaneHead=0;swimlaneBody=0;fillColor=none;collapsible=0;dropTarget=0;points=[[0,0.5],[1,0.5]];portConstraint=eastwest;top=0;left=0;right=0;bottom=0;" vertex="1" parent="fTApm-Xp8Vw2N_FULC9P-88">
          <mxGeometry y="117" width="198" height="46" as="geometry" />
        </mxCell>
        <mxCell id="fTApm-Xp8Vw2N_FULC9P-98" value="TEXT" style="shape=partialRectangle;connectable=0;fillColor=none;top=0;left=0;bottom=0;right=0;align=left;spacingLeft=2;overflow=hidden;fontSize=11;" vertex="1" parent="fTApm-Xp8Vw2N_FULC9P-97">
          <mxGeometry width="38.5" height="46" as="geometry">
            <mxRectangle width="38.5" height="46" as="alternateBounds" />
          </mxGeometry>
        </mxCell>
        <mxCell id="fTApm-Xp8Vw2N_FULC9P-99" value="name" style="shape=partialRectangle;connectable=0;fillColor=none;top=0;left=0;bottom=0;right=0;align=left;spacingLeft=2;overflow=hidden;fontSize=11;" vertex="1" parent="fTApm-Xp8Vw2N_FULC9P-97">
          <mxGeometry x="38.5" width="137.5" height="46" as="geometry">
            <mxRectangle width="137.5" height="46" as="alternateBounds" />
          </mxGeometry>
        </mxCell>
        <mxCell id="fTApm-Xp8Vw2N_FULC9P-100" value="" style="shape=partialRectangle;connectable=0;fillColor=none;top=0;left=0;bottom=0;right=0;align=left;spacingLeft=2;overflow=hidden;fontSize=11;" vertex="1" parent="fTApm-Xp8Vw2N_FULC9P-97">
          <mxGeometry x="176" width="22" height="46" as="geometry">
            <mxRectangle width="22" height="46" as="alternateBounds" />
          </mxGeometry>
        </mxCell>
        <mxCell id="fTApm-Xp8Vw2N_FULC9P-101" style="shape=tableRow;horizontal=0;startSize=0;swimlaneHead=0;swimlaneBody=0;fillColor=none;collapsible=0;dropTarget=0;points=[[0,0.5],[1,0.5]];portConstraint=eastwest;top=0;left=0;right=0;bottom=0;" vertex="1" parent="fTApm-Xp8Vw2N_FULC9P-88">
          <mxGeometry y="163" width="198" height="46" as="geometry" />
        </mxCell>
        <mxCell id="fTApm-Xp8Vw2N_FULC9P-102" value="TEXT" style="shape=partialRectangle;connectable=0;fillColor=none;top=0;left=0;bottom=0;right=0;align=left;spacingLeft=2;overflow=hidden;fontSize=11;" vertex="1" parent="fTApm-Xp8Vw2N_FULC9P-101">
          <mxGeometry width="38.5" height="46" as="geometry">
            <mxRectangle width="38.5" height="46" as="alternateBounds" />
          </mxGeometry>
        </mxCell>
        <mxCell id="fTApm-Xp8Vw2N_FULC9P-103" value="status" style="shape=partialRectangle;connectable=0;fillColor=none;top=0;left=0;bottom=0;right=0;align=left;spacingLeft=2;overflow=hidden;fontSize=11;" vertex="1" parent="fTApm-Xp8Vw2N_FULC9P-101">
          <mxGeometry x="38.5" width="137.5" height="46" as="geometry">
            <mxRectangle width="137.5" height="46" as="alternateBounds" />
          </mxGeometry>
        </mxCell>
        <mxCell id="fTApm-Xp8Vw2N_FULC9P-104" value="" style="shape=partialRectangle;connectable=0;fillColor=none;top=0;left=0;bottom=0;right=0;align=left;spacingLeft=2;overflow=hidden;fontSize=11;" vertex="1" parent="fTApm-Xp8Vw2N_FULC9P-101">
          <mxGeometry x="176" width="22" height="46" as="geometry">
            <mxRectangle width="22" height="46" as="alternateBounds" />
          </mxGeometry>
        </mxCell>
        <mxCell id="fTApm-Xp8Vw2N_FULC9P-105" style="shape=tableRow;horizontal=0;startSize=0;swimlaneHead=0;swimlaneBody=0;fillColor=none;collapsible=0;dropTarget=0;points=[[0,0.5],[1,0.5]];portConstraint=eastwest;top=0;left=0;right=0;bottom=0;" vertex="1" parent="fTApm-Xp8Vw2N_FULC9P-88">
          <mxGeometry y="209" width="198" height="46" as="geometry" />
        </mxCell>
        <mxCell id="fTApm-Xp8Vw2N_FULC9P-106" value="UUID" style="shape=partialRectangle;connectable=0;fillColor=none;top=0;left=0;bottom=0;right=0;align=left;spacingLeft=2;overflow=hidden;fontSize=11;" vertex="1" parent="fTApm-Xp8Vw2N_FULC9P-105">
          <mxGeometry width="38.5" height="46" as="geometry">
            <mxRectangle width="38.5" height="46" as="alternateBounds" />
          </mxGeometry>
        </mxCell>
        <mxCell id="fTApm-Xp8Vw2N_FULC9P-107" value="sensei_id" style="shape=partialRectangle;connectable=0;fillColor=none;top=0;left=0;bottom=0;right=0;align=left;spacingLeft=2;overflow=hidden;fontSize=11;" vertex="1" parent="fTApm-Xp8Vw2N_FULC9P-105">
          <mxGeometry x="38.5" width="137.5" height="46" as="geometry">
            <mxRectangle width="137.5" height="46" as="alternateBounds" />
          </mxGeometry>
        </mxCell>
        <mxCell id="fTApm-Xp8Vw2N_FULC9P-108" value="FK" style="shape=partialRectangle;connectable=0;fillColor=none;top=0;left=0;bottom=0;right=0;align=left;spacingLeft=2;overflow=hidden;fontSize=11;" vertex="1" parent="fTApm-Xp8Vw2N_FULC9P-105">
          <mxGeometry x="176" width="22" height="46" as="geometry">
            <mxRectangle width="22" height="46" as="alternateBounds" />
          </mxGeometry>
        </mxCell>
        <mxCell id="fTApm-Xp8Vw2N_FULC9P-109" style="shape=tableRow;horizontal=0;startSize=0;swimlaneHead=0;swimlaneBody=0;fillColor=none;collapsible=0;dropTarget=0;points=[[0,0.5],[1,0.5]];portConstraint=eastwest;top=0;left=0;right=0;bottom=0;" vertex="1" parent="fTApm-Xp8Vw2N_FULC9P-88">
          <mxGeometry y="255" width="198" height="46" as="geometry" />
        </mxCell>
        <mxCell id="fTApm-Xp8Vw2N_FULC9P-110" value="UUID" style="shape=partialRectangle;connectable=0;fillColor=none;top=0;left=0;bottom=0;right=0;align=left;spacingLeft=2;overflow=hidden;fontSize=11;" vertex="1" parent="fTApm-Xp8Vw2N_FULC9P-109">
          <mxGeometry width="38.5" height="46" as="geometry">
            <mxRectangle width="38.5" height="46" as="alternateBounds" />
          </mxGeometry>
        </mxCell>
        <mxCell id="fTApm-Xp8Vw2N_FULC9P-111" value="tenant_id" style="shape=partialRectangle;connectable=0;fillColor=none;top=0;left=0;bottom=0;right=0;align=left;spacingLeft=2;overflow=hidden;fontSize=11;" vertex="1" parent="fTApm-Xp8Vw2N_FULC9P-109">
          <mxGeometry x="38.5" width="137.5" height="46" as="geometry">
            <mxRectangle width="137.5" height="46" as="alternateBounds" />
          </mxGeometry>
        </mxCell>
        <mxCell id="fTApm-Xp8Vw2N_FULC9P-112" value="" style="shape=partialRectangle;connectable=0;fillColor=none;top=0;left=0;bottom=0;right=0;align=left;spacingLeft=2;overflow=hidden;fontSize=11;" vertex="1" parent="fTApm-Xp8Vw2N_FULC9P-109">
          <mxGeometry x="176" width="22" height="46" as="geometry">
            <mxRectangle width="22" height="46" as="alternateBounds" />
          </mxGeometry>
        </mxCell>
        <mxCell id="fTApm-Xp8Vw2N_FULC9P-113" value="room_participants" style="shape=table;startSize=25;container=1;collapsible=0;childLayout=tableLayout;fixedRows=1;rowLines=1;fontStyle=1;align=center;resizeLast=1;" vertex="1" parent="1">
          <mxGeometry x="840" y="64" width="241" height="257" as="geometry" />
        </mxCell>
        <mxCell id="fTApm-Xp8Vw2N_FULC9P-114" style="shape=tableRow;horizontal=0;startSize=0;swimlaneHead=0;swimlaneBody=0;fillColor=none;collapsible=0;dropTarget=0;points=[[0,0.5],[1,0.5]];portConstraint=eastwest;top=0;left=0;right=0;bottom=0;" vertex="1" parent="fTApm-Xp8Vw2N_FULC9P-113">
          <mxGeometry y="25" width="241" height="46" as="geometry" />
        </mxCell>
        <mxCell id="fTApm-Xp8Vw2N_FULC9P-115" value="UUID" style="shape=partialRectangle;connectable=0;fillColor=none;top=0;left=0;bottom=0;right=0;align=left;spacingLeft=2;overflow=hidden;fontSize=11;" vertex="1" parent="fTApm-Xp8Vw2N_FULC9P-114">
          <mxGeometry width="70" height="46" as="geometry">
            <mxRectangle width="70" height="46" as="alternateBounds" />
          </mxGeometry>
        </mxCell>
        <mxCell id="fTApm-Xp8Vw2N_FULC9P-116" value="room_id" style="shape=partialRectangle;connectable=0;fillColor=none;top=0;left=0;bottom=0;right=0;align=left;spacingLeft=2;overflow=hidden;fontSize=11;" vertex="1" parent="fTApm-Xp8Vw2N_FULC9P-114">
          <mxGeometry x="70" width="149" height="46" as="geometry">
            <mxRectangle width="149" height="46" as="alternateBounds" />
          </mxGeometry>
        </mxCell>
        <mxCell id="fTApm-Xp8Vw2N_FULC9P-117" value="PK" style="shape=partialRectangle;connectable=0;fillColor=none;top=0;left=0;bottom=0;right=0;align=left;spacingLeft=2;overflow=hidden;fontSize=11;" vertex="1" parent="fTApm-Xp8Vw2N_FULC9P-114">
          <mxGeometry x="219" width="22" height="46" as="geometry">
            <mxRectangle width="22" height="46" as="alternateBounds" />
          </mxGeometry>
        </mxCell>
        <mxCell id="fTApm-Xp8Vw2N_FULC9P-118" style="shape=tableRow;horizontal=0;startSize=0;swimlaneHead=0;swimlaneBody=0;fillColor=none;collapsible=0;dropTarget=0;points=[[0,0.5],[1,0.5]];portConstraint=eastwest;top=0;left=0;right=0;bottom=0;" vertex="1" parent="fTApm-Xp8Vw2N_FULC9P-113">
          <mxGeometry y="71" width="241" height="46" as="geometry" />
        </mxCell>
        <mxCell id="fTApm-Xp8Vw2N_FULC9P-119" value="UUID" style="shape=partialRectangle;connectable=0;fillColor=none;top=0;left=0;bottom=0;right=0;align=left;spacingLeft=2;overflow=hidden;fontSize=11;" vertex="1" parent="fTApm-Xp8Vw2N_FULC9P-118">
          <mxGeometry width="70" height="46" as="geometry">
            <mxRectangle width="70" height="46" as="alternateBounds" />
          </mxGeometry>
        </mxCell>
        <mxCell id="fTApm-Xp8Vw2N_FULC9P-120" value="user_id" style="shape=partialRectangle;connectable=0;fillColor=none;top=0;left=0;bottom=0;right=0;align=left;spacingLeft=2;overflow=hidden;fontSize=11;" vertex="1" parent="fTApm-Xp8Vw2N_FULC9P-118">
          <mxGeometry x="70" width="149" height="46" as="geometry">
            <mxRectangle width="149" height="46" as="alternateBounds" />
          </mxGeometry>
        </mxCell>
        <mxCell id="fTApm-Xp8Vw2N_FULC9P-121" value="FK" style="shape=partialRectangle;connectable=0;fillColor=none;top=0;left=0;bottom=0;right=0;align=left;spacingLeft=2;overflow=hidden;fontSize=11;" vertex="1" parent="fTApm-Xp8Vw2N_FULC9P-118">
          <mxGeometry x="219" width="22" height="46" as="geometry">
            <mxRectangle width="22" height="46" as="alternateBounds" />
          </mxGeometry>
        </mxCell>
        <mxCell id="fTApm-Xp8Vw2N_FULC9P-122" style="shape=tableRow;horizontal=0;startSize=0;swimlaneHead=0;swimlaneBody=0;fillColor=none;collapsible=0;dropTarget=0;points=[[0,0.5],[1,0.5]];portConstraint=eastwest;top=0;left=0;right=0;bottom=0;" vertex="1" parent="fTApm-Xp8Vw2N_FULC9P-113">
          <mxGeometry y="117" width="241" height="46" as="geometry" />
        </mxCell>
        <mxCell id="fTApm-Xp8Vw2N_FULC9P-123" value="TIMESTAMP" style="shape=partialRectangle;connectable=0;fillColor=none;top=0;left=0;bottom=0;right=0;align=left;spacingLeft=2;overflow=hidden;fontSize=11;" vertex="1" parent="fTApm-Xp8Vw2N_FULC9P-122">
          <mxGeometry width="70" height="46" as="geometry">
            <mxRectangle width="70" height="46" as="alternateBounds" />
          </mxGeometry>
        </mxCell>
        <mxCell id="fTApm-Xp8Vw2N_FULC9P-124" value="joined_at" style="shape=partialRectangle;connectable=0;fillColor=none;top=0;left=0;bottom=0;right=0;align=left;spacingLeft=2;overflow=hidden;fontSize=11;" vertex="1" parent="fTApm-Xp8Vw2N_FULC9P-122">
          <mxGeometry x="70" width="149" height="46" as="geometry">
            <mxRectangle width="149" height="46" as="alternateBounds" />
          </mxGeometry>
        </mxCell>
        <mxCell id="fTApm-Xp8Vw2N_FULC9P-125" value="" style="shape=partialRectangle;connectable=0;fillColor=none;top=0;left=0;bottom=0;right=0;align=left;spacingLeft=2;overflow=hidden;fontSize=11;" vertex="1" parent="fTApm-Xp8Vw2N_FULC9P-122">
          <mxGeometry x="219" width="22" height="46" as="geometry">
            <mxRectangle width="22" height="46" as="alternateBounds" />
          </mxGeometry>
        </mxCell>
        <mxCell id="fTApm-Xp8Vw2N_FULC9P-126" style="shape=tableRow;horizontal=0;startSize=0;swimlaneHead=0;swimlaneBody=0;fillColor=none;collapsible=0;dropTarget=0;points=[[0,0.5],[1,0.5]];portConstraint=eastwest;top=0;left=0;right=0;bottom=0;" vertex="1" parent="fTApm-Xp8Vw2N_FULC9P-113">
          <mxGeometry y="163" width="241" height="46" as="geometry" />
        </mxCell>
        <mxCell id="fTApm-Xp8Vw2N_FULC9P-127" value="TIMESTAMP" style="shape=partialRectangle;connectable=0;fillColor=none;top=0;left=0;bottom=0;right=0;align=left;spacingLeft=2;overflow=hidden;fontSize=11;" vertex="1" parent="fTApm-Xp8Vw2N_FULC9P-126">
          <mxGeometry width="70" height="46" as="geometry">
            <mxRectangle width="70" height="46" as="alternateBounds" />
          </mxGeometry>
        </mxCell>
        <mxCell id="fTApm-Xp8Vw2N_FULC9P-128" value="left_at" style="shape=partialRectangle;connectable=0;fillColor=none;top=0;left=0;bottom=0;right=0;align=left;spacingLeft=2;overflow=hidden;fontSize=11;" vertex="1" parent="fTApm-Xp8Vw2N_FULC9P-126">
          <mxGeometry x="70" width="149" height="46" as="geometry">
            <mxRectangle width="149" height="46" as="alternateBounds" />
          </mxGeometry>
        </mxCell>
        <mxCell id="fTApm-Xp8Vw2N_FULC9P-129" value="" style="shape=partialRectangle;connectable=0;fillColor=none;top=0;left=0;bottom=0;right=0;align=left;spacingLeft=2;overflow=hidden;fontSize=11;" vertex="1" parent="fTApm-Xp8Vw2N_FULC9P-126">
          <mxGeometry x="219" width="22" height="46" as="geometry">
            <mxRectangle width="22" height="46" as="alternateBounds" />
          </mxGeometry>
        </mxCell>
        <mxCell id="fTApm-Xp8Vw2N_FULC9P-130" style="shape=tableRow;horizontal=0;startSize=0;swimlaneHead=0;swimlaneBody=0;fillColor=none;collapsible=0;dropTarget=0;points=[[0,0.5],[1,0.5]];portConstraint=eastwest;top=0;left=0;right=0;bottom=0;" vertex="1" parent="fTApm-Xp8Vw2N_FULC9P-113">
          <mxGeometry y="209" width="241" height="46" as="geometry" />
        </mxCell>
        <mxCell id="fTApm-Xp8Vw2N_FULC9P-131" value="UUID" style="shape=partialRectangle;connectable=0;fillColor=none;top=0;left=0;bottom=0;right=0;align=left;spacingLeft=2;overflow=hidden;fontSize=11;" vertex="1" parent="fTApm-Xp8Vw2N_FULC9P-130">
          <mxGeometry width="70" height="46" as="geometry">
            <mxRectangle width="70" height="46" as="alternateBounds" />
          </mxGeometry>
        </mxCell>
        <mxCell id="fTApm-Xp8Vw2N_FULC9P-132" value="tenant_id" style="shape=partialRectangle;connectable=0;fillColor=none;top=0;left=0;bottom=0;right=0;align=left;spacingLeft=2;overflow=hidden;fontSize=11;" vertex="1" parent="fTApm-Xp8Vw2N_FULC9P-130">
          <mxGeometry x="70" width="149" height="46" as="geometry">
            <mxRectangle width="149" height="46" as="alternateBounds" />
          </mxGeometry>
        </mxCell>
        <mxCell id="fTApm-Xp8Vw2N_FULC9P-133" value="" style="shape=partialRectangle;connectable=0;fillColor=none;top=0;left=0;bottom=0;right=0;align=left;spacingLeft=2;overflow=hidden;fontSize=11;" vertex="1" parent="fTApm-Xp8Vw2N_FULC9P-130">
          <mxGeometry x="219" width="22" height="46" as="geometry">
            <mxRectangle width="22" height="46" as="alternateBounds" />
          </mxGeometry>
        </mxCell>
        <mxCell id="fTApm-Xp8Vw2N_FULC9P-134" value="videos" style="shape=table;startSize=25;container=1;collapsible=0;childLayout=tableLayout;fixedRows=1;rowLines=1;fontStyle=1;align=center;resizeLast=1;" vertex="1" parent="1">
          <mxGeometry x="493.5" y="400" width="250" height="317" as="geometry" />
        </mxCell>
        <mxCell id="fTApm-Xp8Vw2N_FULC9P-135" style="shape=tableRow;horizontal=0;startSize=0;swimlaneHead=0;swimlaneBody=0;fillColor=none;collapsible=0;dropTarget=0;points=[[0,0.5],[1,0.5]];portConstraint=eastwest;top=0;left=0;right=0;bottom=0;" vertex="1" parent="fTApm-Xp8Vw2N_FULC9P-134">
          <mxGeometry y="25" width="250" height="45" as="geometry" />
        </mxCell>
        <mxCell id="fTApm-Xp8Vw2N_FULC9P-136" value="UUID" style="shape=partialRectangle;connectable=0;fillColor=none;top=0;left=0;bottom=0;right=0;align=left;spacingLeft=2;overflow=hidden;fontSize=11;" vertex="1" parent="fTApm-Xp8Vw2N_FULC9P-135">
          <mxGeometry width="86.5" height="45" as="geometry">
            <mxRectangle width="86.5" height="45" as="alternateBounds" />
          </mxGeometry>
        </mxCell>
        <mxCell id="fTApm-Xp8Vw2N_FULC9P-137" value="id" style="shape=partialRectangle;connectable=0;fillColor=none;top=0;left=0;bottom=0;right=0;align=left;spacingLeft=2;overflow=hidden;fontSize=11;" vertex="1" parent="fTApm-Xp8Vw2N_FULC9P-135">
          <mxGeometry x="86.5" width="141.5" height="45" as="geometry">
            <mxRectangle width="141.5" height="45" as="alternateBounds" />
          </mxGeometry>
        </mxCell>
        <mxCell id="fTApm-Xp8Vw2N_FULC9P-138" value="PK" style="shape=partialRectangle;connectable=0;fillColor=none;top=0;left=0;bottom=0;right=0;align=left;spacingLeft=2;overflow=hidden;fontSize=11;" vertex="1" parent="fTApm-Xp8Vw2N_FULC9P-135">
          <mxGeometry x="228" width="22" height="45" as="geometry">
            <mxRectangle width="22" height="45" as="alternateBounds" />
          </mxGeometry>
        </mxCell>
        <mxCell id="fTApm-Xp8Vw2N_FULC9P-139" style="shape=tableRow;horizontal=0;startSize=0;swimlaneHead=0;swimlaneBody=0;fillColor=none;collapsible=0;dropTarget=0;points=[[0,0.5],[1,0.5]];portConstraint=eastwest;top=0;left=0;right=0;bottom=0;" vertex="1" parent="fTApm-Xp8Vw2N_FULC9P-134">
          <mxGeometry y="70" width="250" height="45" as="geometry" />
        </mxCell>
        <mxCell id="fTApm-Xp8Vw2N_FULC9P-140" value="UUID" style="shape=partialRectangle;connectable=0;fillColor=none;top=0;left=0;bottom=0;right=0;align=left;spacingLeft=2;overflow=hidden;fontSize=11;" vertex="1" parent="fTApm-Xp8Vw2N_FULC9P-139">
          <mxGeometry width="86.5" height="45" as="geometry">
            <mxRectangle width="86.5" height="45" as="alternateBounds" />
          </mxGeometry>
        </mxCell>
        <mxCell id="fTApm-Xp8Vw2N_FULC9P-141" value="user_id" style="shape=partialRectangle;connectable=0;fillColor=none;top=0;left=0;bottom=0;right=0;align=left;spacingLeft=2;overflow=hidden;fontSize=11;" vertex="1" parent="fTApm-Xp8Vw2N_FULC9P-139">
          <mxGeometry x="86.5" width="141.5" height="45" as="geometry">
            <mxRectangle width="141.5" height="45" as="alternateBounds" />
          </mxGeometry>
        </mxCell>
        <mxCell id="fTApm-Xp8Vw2N_FULC9P-142" value="FK" style="shape=partialRectangle;connectable=0;fillColor=none;top=0;left=0;bottom=0;right=0;align=left;spacingLeft=2;overflow=hidden;fontSize=11;" vertex="1" parent="fTApm-Xp8Vw2N_FULC9P-139">
          <mxGeometry x="228" width="22" height="45" as="geometry">
            <mxRectangle width="22" height="45" as="alternateBounds" />
          </mxGeometry>
        </mxCell>
        <mxCell id="fTApm-Xp8Vw2N_FULC9P-143" style="shape=tableRow;horizontal=0;startSize=0;swimlaneHead=0;swimlaneBody=0;fillColor=none;collapsible=0;dropTarget=0;points=[[0,0.5],[1,0.5]];portConstraint=eastwest;top=0;left=0;right=0;bottom=0;" vertex="1" parent="fTApm-Xp8Vw2N_FULC9P-134">
          <mxGeometry y="115" width="250" height="20" as="geometry" />
        </mxCell>
        <mxCell id="fTApm-Xp8Vw2N_FULC9P-144" value="" style="shape=partialRectangle;connectable=0;fillColor=none;top=0;left=0;bottom=0;right=0;align=left;spacingLeft=2;overflow=hidden;fontSize=11;" vertex="1" parent="fTApm-Xp8Vw2N_FULC9P-143">
          <mxGeometry width="86.5" height="20" as="geometry">
            <mxRectangle width="86.5" height="20" as="alternateBounds" />
          </mxGeometry>
        </mxCell>
        <mxCell id="fTApm-Xp8Vw2N_FULC9P-145" value="" style="shape=partialRectangle;connectable=0;fillColor=none;top=0;left=0;bottom=0;right=0;align=left;spacingLeft=2;overflow=hidden;fontSize=11;" vertex="1" parent="fTApm-Xp8Vw2N_FULC9P-143">
          <mxGeometry x="86.5" width="141.5" height="20" as="geometry">
            <mxRectangle width="141.5" height="20" as="alternateBounds" />
          </mxGeometry>
        </mxCell>
        <mxCell id="fTApm-Xp8Vw2N_FULC9P-146" value="" style="shape=partialRectangle;connectable=0;fillColor=none;top=0;left=0;bottom=0;right=0;align=left;spacingLeft=2;overflow=hidden;fontSize=11;" vertex="1" parent="fTApm-Xp8Vw2N_FULC9P-143">
          <mxGeometry x="228" width="22" height="20" as="geometry">
            <mxRectangle width="22" height="20" as="alternateBounds" />
          </mxGeometry>
        </mxCell>
        <mxCell id="fTApm-Xp8Vw2N_FULC9P-147" style="shape=tableRow;horizontal=0;startSize=0;swimlaneHead=0;swimlaneBody=0;fillColor=none;collapsible=0;dropTarget=0;points=[[0,0.5],[1,0.5]];portConstraint=eastwest;top=0;left=0;right=0;bottom=0;" vertex="1" parent="fTApm-Xp8Vw2N_FULC9P-134">
          <mxGeometry y="135" width="250" height="45" as="geometry" />
        </mxCell>
        <mxCell id="fTApm-Xp8Vw2N_FULC9P-148" value="TEXT" style="shape=partialRectangle;connectable=0;fillColor=none;top=0;left=0;bottom=0;right=0;align=left;spacingLeft=2;overflow=hidden;fontSize=11;" vertex="1" parent="fTApm-Xp8Vw2N_FULC9P-147">
          <mxGeometry width="86.5" height="45" as="geometry">
            <mxRectangle width="86.5" height="45" as="alternateBounds" />
          </mxGeometry>
        </mxCell>
        <mxCell id="fTApm-Xp8Vw2N_FULC9P-149" value="status" style="shape=partialRectangle;connectable=0;fillColor=none;top=0;left=0;bottom=0;right=0;align=left;spacingLeft=2;overflow=hidden;fontSize=11;" vertex="1" parent="fTApm-Xp8Vw2N_FULC9P-147">
          <mxGeometry x="86.5" width="141.5" height="45" as="geometry">
            <mxRectangle width="141.5" height="45" as="alternateBounds" />
          </mxGeometry>
        </mxCell>
        <mxCell id="fTApm-Xp8Vw2N_FULC9P-150" value="" style="shape=partialRectangle;connectable=0;fillColor=none;top=0;left=0;bottom=0;right=0;align=left;spacingLeft=2;overflow=hidden;fontSize=11;" vertex="1" parent="fTApm-Xp8Vw2N_FULC9P-147">
          <mxGeometry x="228" width="22" height="45" as="geometry">
            <mxRectangle width="22" height="45" as="alternateBounds" />
          </mxGeometry>
        </mxCell>
        <mxCell id="fTApm-Xp8Vw2N_FULC9P-151" style="shape=tableRow;horizontal=0;startSize=0;swimlaneHead=0;swimlaneBody=0;fillColor=none;collapsible=0;dropTarget=0;points=[[0,0.5],[1,0.5]];portConstraint=eastwest;top=0;left=0;right=0;bottom=0;" vertex="1" parent="fTApm-Xp8Vw2N_FULC9P-134">
          <mxGeometry y="180" width="250" height="45" as="geometry" />
        </mxCell>
        <mxCell id="fTApm-Xp8Vw2N_FULC9P-152" value="TEXT" style="shape=partialRectangle;connectable=0;fillColor=none;top=0;left=0;bottom=0;right=0;align=left;spacingLeft=2;overflow=hidden;fontSize=11;" vertex="1" parent="fTApm-Xp8Vw2N_FULC9P-151">
          <mxGeometry width="86.5" height="45" as="geometry">
            <mxRectangle width="86.5" height="45" as="alternateBounds" />
          </mxGeometry>
        </mxCell>
        <mxCell id="fTApm-Xp8Vw2N_FULC9P-153" value="s3_path" style="shape=partialRectangle;connectable=0;fillColor=none;top=0;left=0;bottom=0;right=0;align=left;spacingLeft=2;overflow=hidden;fontSize=11;" vertex="1" parent="fTApm-Xp8Vw2N_FULC9P-151">
          <mxGeometry x="86.5" width="141.5" height="45" as="geometry">
            <mxRectangle width="141.5" height="45" as="alternateBounds" />
          </mxGeometry>
        </mxCell>
        <mxCell id="fTApm-Xp8Vw2N_FULC9P-154" value="" style="shape=partialRectangle;connectable=0;fillColor=none;top=0;left=0;bottom=0;right=0;align=left;spacingLeft=2;overflow=hidden;fontSize=11;" vertex="1" parent="fTApm-Xp8Vw2N_FULC9P-151">
          <mxGeometry x="228" width="22" height="45" as="geometry">
            <mxRectangle width="22" height="45" as="alternateBounds" />
          </mxGeometry>
        </mxCell>
        <mxCell id="fTApm-Xp8Vw2N_FULC9P-155" style="shape=tableRow;horizontal=0;startSize=0;swimlaneHead=0;swimlaneBody=0;fillColor=none;collapsible=0;dropTarget=0;points=[[0,0.5],[1,0.5]];portConstraint=eastwest;top=0;left=0;right=0;bottom=0;" vertex="1" parent="fTApm-Xp8Vw2N_FULC9P-134">
          <mxGeometry y="225" width="250" height="45" as="geometry" />
        </mxCell>
        <mxCell id="fTApm-Xp8Vw2N_FULC9P-156" value="TIMESTAMP" style="shape=partialRectangle;connectable=0;fillColor=none;top=0;left=0;bottom=0;right=0;align=left;spacingLeft=2;overflow=hidden;fontSize=11;" vertex="1" parent="fTApm-Xp8Vw2N_FULC9P-155">
          <mxGeometry width="86.5" height="45" as="geometry">
            <mxRectangle width="86.5" height="45" as="alternateBounds" />
          </mxGeometry>
        </mxCell>
        <mxCell id="fTApm-Xp8Vw2N_FULC9P-157" value="created_at" style="shape=partialRectangle;connectable=0;fillColor=none;top=0;left=0;bottom=0;right=0;align=left;spacingLeft=2;overflow=hidden;fontSize=11;" vertex="1" parent="fTApm-Xp8Vw2N_FULC9P-155">
          <mxGeometry x="86.5" width="141.5" height="45" as="geometry">
            <mxRectangle width="141.5" height="45" as="alternateBounds" />
          </mxGeometry>
        </mxCell>
        <mxCell id="fTApm-Xp8Vw2N_FULC9P-158" value="" style="shape=partialRectangle;connectable=0;fillColor=none;top=0;left=0;bottom=0;right=0;align=left;spacingLeft=2;overflow=hidden;fontSize=11;" vertex="1" parent="fTApm-Xp8Vw2N_FULC9P-155">
          <mxGeometry x="228" width="22" height="45" as="geometry">
            <mxRectangle width="22" height="45" as="alternateBounds" />
          </mxGeometry>
        </mxCell>
        <mxCell id="fTApm-Xp8Vw2N_FULC9P-159" style="shape=tableRow;horizontal=0;startSize=0;swimlaneHead=0;swimlaneBody=0;fillColor=none;collapsible=0;dropTarget=0;points=[[0,0.5],[1,0.5]];portConstraint=eastwest;top=0;left=0;right=0;bottom=0;" vertex="1" parent="fTApm-Xp8Vw2N_FULC9P-134">
          <mxGeometry y="270" width="250" height="45" as="geometry" />
        </mxCell>
        <mxCell id="fTApm-Xp8Vw2N_FULC9P-160" value="UUID" style="shape=partialRectangle;connectable=0;fillColor=none;top=0;left=0;bottom=0;right=0;align=left;spacingLeft=2;overflow=hidden;fontSize=11;" vertex="1" parent="fTApm-Xp8Vw2N_FULC9P-159">
          <mxGeometry width="86.5" height="45" as="geometry">
            <mxRectangle width="86.5" height="45" as="alternateBounds" />
          </mxGeometry>
        </mxCell>
        <mxCell id="fTApm-Xp8Vw2N_FULC9P-161" value="tenant_id" style="shape=partialRectangle;connectable=0;fillColor=none;top=0;left=0;bottom=0;right=0;align=left;spacingLeft=2;overflow=hidden;fontSize=11;" vertex="1" parent="fTApm-Xp8Vw2N_FULC9P-159">
          <mxGeometry x="86.5" width="141.5" height="45" as="geometry">
            <mxRectangle width="141.5" height="45" as="alternateBounds" />
          </mxGeometry>
        </mxCell>
        <mxCell id="fTApm-Xp8Vw2N_FULC9P-162" value="" style="shape=partialRectangle;connectable=0;fillColor=none;top=0;left=0;bottom=0;right=0;align=left;spacingLeft=2;overflow=hidden;fontSize=11;" vertex="1" parent="fTApm-Xp8Vw2N_FULC9P-159">
          <mxGeometry x="228" width="22" height="45" as="geometry">
            <mxRectangle width="22" height="45" as="alternateBounds" />
          </mxGeometry>
        </mxCell>
        <mxCell id="fTApm-Xp8Vw2N_FULC9P-163" value="owns" style="curved=0;startArrow=ERmandOne;startSize=10;;endArrow=ERzeroToMany;endSize=10;;exitX=0;exitY=0.5;rounded=0;exitDx=0;exitDy=0;entryX=0.999;entryY=0.563;entryDx=0;entryDy=0;entryPerimeter=0;" edge="1" parent="1" source="fTApm-Xp8Vw2N_FULC9P-10" target="fTApm-Xp8Vw2N_FULC9P-35">
          <mxGeometry relative="1" as="geometry">
            <mxPoint x="390" y="68" as="targetPoint" />
          </mxGeometry>
        </mxCell>
        <mxCell id="fTApm-Xp8Vw2N_FULC9P-167" value="has" style="curved=1;startArrow=ERmandOne;startSize=10;;endArrow=ERzeroToMany;endSize=10;;exitX=0.5;exitY=1;entryX=0.5;entryY=0;rounded=0;" edge="1" parent="1" source="fTApm-Xp8Vw2N_FULC9P-1" target="fTApm-Xp8Vw2N_FULC9P-134">
          <mxGeometry relative="1" as="geometry">
            <Array as="points" />
          </mxGeometry>
        </mxCell>
        <mxCell id="fTApm-Xp8Vw2N_FULC9P-170" value="has" style="curved=0;startArrow=ERmandOne;startSize=10;;endArrow=ERzeroToMany;endSize=10;;exitX=0.5;exitY=0;rounded=0;exitDx=0;exitDy=0;entryX=0.5;entryY=1;entryDx=0;entryDy=0;" edge="1" parent="1" source="fTApm-Xp8Vw2N_FULC9P-88" target="fTApm-Xp8Vw2N_FULC9P-113">
          <mxGeometry relative="1" as="geometry">
            <Array as="points" />
            <mxPoint x="960" y="340" as="targetPoint" />
          </mxGeometry>
        </mxCell>
        <mxCell id="fTApm-Xp8Vw2N_FULC9P-174" style="edgeStyle=orthogonalEdgeStyle;rounded=0;orthogonalLoop=1;jettySize=auto;html=1;entryX=-0.004;entryY=0.555;entryDx=0;entryDy=0;entryPerimeter=0;startArrow=ERmandOne;startFill=0;endArrow=ERzeroToMany;endFill=0;startSize=10;endSize=10;" edge="1" parent="1" source="fTApm-Xp8Vw2N_FULC9P-10" target="fTApm-Xp8Vw2N_FULC9P-118">
          <mxGeometry relative="1" as="geometry" />
        </mxCell>
        <mxCell id="fTApm-Xp8Vw2N_FULC9P-175" value="has" style="edgeLabel;html=1;align=center;verticalAlign=middle;resizable=0;points=[];" vertex="1" connectable="0" parent="fTApm-Xp8Vw2N_FULC9P-174">
          <mxGeometry x="-0.2083" y="1" relative="1" as="geometry">
            <mxPoint x="6" y="1" as="offset" />
          </mxGeometry>
        </mxCell>
        <mxCell id="fTApm-Xp8Vw2N_FULC9P-178" style="edgeStyle=orthogonalEdgeStyle;rounded=0;orthogonalLoop=1;jettySize=auto;html=1;entryX=0.488;entryY=0.988;entryDx=0;entryDy=0;entryPerimeter=0;startArrow=ERmandOne;startFill=0;endArrow=ERzeroToMany;endFill=0;startSize=10;endSize=10;" edge="1" parent="1" source="fTApm-Xp8Vw2N_FULC9P-63" target="fTApm-Xp8Vw2N_FULC9P-109">
          <mxGeometry relative="1" as="geometry" />
        </mxCell>
      </root>
    </mxGraphModel>
  </diagram>
</mxfile>
